<svg xmlns="http://www.w3.org/2000/svg" xmlns:xlink="http://www.w3.org/1999/xlink" width="184.598" height="36" viewBox="0 0 184.598 36">
  <defs>
    <clipPath id="clip-path">
      <rect width="184.598" height="36" fill="none"/>
    </clipPath>
  </defs>
  <g id="リピートグリッド_1" data-name="リピートグリッド 1" clip-path="url(#clip-path)">
    <g id="グループ_3" data-name="グループ 3" transform="translate(-46 -18.424)">
      <path id="パス_1" data-name="パス 1" d="M87.8,31.959,82.07,21.434a1.014,1.014,0,0,0-.826-.49H79.279a1.012,1.012,0,0,0-.825.49L72.616,32.155a.521.521,0,0,0-.071.251.376.376,0,0,0,.136.293.5.5,0,0,0,.316.1h1.8a1.013,1.013,0,0,0,.826-.491L80.2,23.879c.045-.082.077-.081.077-.082s.03,0,.076.082L84.9,32.308a1.01,1.01,0,0,0,.824.493h1.8a1.612,1.612,0,0,0,.328-.03.457.457,0,0,0,.127-.041.206.206,0,0,0,.12-.179.2.2,0,0,0-.021-.086Z" transform="translate(-5.514 -0.523)" fill="#0052a4"/>
      <path id="パス_2" data-name="パス 2" d="M147.74,22.036h0a9.374,9.374,0,0,0-10.4,0,5.582,5.582,0,0,0-2.5,4.7v.017a5.63,5.63,0,0,0,2.486,4.736,8.623,8.623,0,0,0,5.215,1.539h.022a8.551,8.551,0,0,0,5.205-1.541,5.662,5.662,0,0,0,2.484-4.727v-.022A5.62,5.62,0,0,0,147.74,22.036Zm-1.669,7.378a5.53,5.53,0,0,1-3.535,1.047,5.593,5.593,0,0,1-3.561-1.047A3.342,3.342,0,0,1,139,24.1a6.323,6.323,0,0,1,7.038-.007,3.364,3.364,0,0,1,.029,5.322Z" transform="translate(-18.453 -0.423)" fill="#0052a4"/>
      <path id="パス_3" data-name="パス 3" d="M201.472,30.857a.626.626,0,0,0-.624-.624h-7.782a.3.3,0,0,1-.3-.3l0-8.366a.626.626,0,0,0-.624-.624H190.6a.625.625,0,0,0-.624.624V32.176a.626.626,0,0,0,.624.625h10.244a.587.587,0,0,0,.624-.647Z" transform="translate(-29.91 -0.523)" fill="#0052a4"/>
      <path id="パス_4" data-name="パス 4" d="M218.234,32.154v-1.3a.624.624,0,0,0-.623-.624h-7.781a.3.3,0,0,1-.3-.3l0-8.366a.626.626,0,0,0-.624-.624h-1.541a.626.626,0,0,0-.624.624V32.176a.627.627,0,0,0,.624.625h10.243A.585.585,0,0,0,218.234,32.154Z" transform="translate(-33.392 -0.523)" fill="#0052a4"/>
      <path id="パス_5" data-name="パス 5" d="M97.451,24.074a5.809,5.809,0,0,1,3.648-1.043,5.972,5.972,0,0,1,4.306,1.63h0a.453.453,0,0,0,.317.154.3.3,0,0,0,.086-.013l1.905-.658a.385.385,0,0,0,.218-.338.5.5,0,0,0-.1-.287,8.668,8.668,0,0,0-6.867-3.058h-.013a8.587,8.587,0,0,0-5.208,1.56A5.577,5.577,0,0,0,93.256,26.7v.016a5.573,5.573,0,0,0,2.189,4.518,8.712,8.712,0,0,0,5.636,1.741h.013a8.623,8.623,0,0,0,6.74-2.893.3.3,0,0,0,.088-.2.319.319,0,0,0-.208-.281v0l-1.783-.952a.379.379,0,0,0-.178-.045.419.419,0,0,0-.282.118,5.828,5.828,0,0,1-4.336,1.691,5.9,5.9,0,0,1-3.686-1.035,3.33,3.33,0,0,1,0-5.3Z" transform="translate(-9.817 -0.424)" fill="#0052a4"/>
      <path id="パス_6" data-name="パス 6" d="M128.545,31.959l-1.141-1.6-1.382-1.94a3.445,3.445,0,0,0,2.608-3.575.157.157,0,0,1,0-.028c0-.011,0-.011,0-.011a3.64,3.64,0,0,0-1.158-2.811,4.358,4.358,0,0,0-3.049-1.048h-8.784a.625.625,0,0,0-.624.624V32.176a.627.627,0,0,0,.624.625h1.54a.627.627,0,0,0,.625-.625V23.81a.3.3,0,0,1,.3-.3h5.856a2.4,2.4,0,0,1,1.414.343,1.174,1.174,0,0,1,.415,1,1.086,1.086,0,0,1-.384.921,2.23,2.23,0,0,1-1.321.32l-2.869.1,4.373,6.161a1.159,1.159,0,0,0,.861.444h1.921a1.4,1.4,0,0,0,.317-.031.439.439,0,0,0,.126-.043.205.205,0,0,0,.112-.177.2.2,0,0,0-.033-.109Z" transform="translate(-14.336 -0.523)" fill="#0052a4"/>
      <path id="パス_7" data-name="パス 7" d="M64.512,18.424H62.491a1.234,1.234,0,0,0-.876.421l-5.72,7.212a.187.187,0,0,1-.318,0l-5.719-7.212a1.236,1.236,0,0,0-.876-.421H46.96a.624.624,0,0,0-.624.624v12.6a.626.626,0,0,0,.624.625H48.5a.626.626,0,0,0,.624-.625V21.915l4.564,5.776a1.232,1.232,0,0,0,.874.424h2.347a1.233,1.233,0,0,0,.875-.424l4.565-5.776v9.738a.625.625,0,0,0,.624.625h1.539a.627.627,0,0,0,.624-.625v-12.6A.625.625,0,0,0,64.512,18.424Z" transform="translate(-0.07)" fill="#0052a4"/>
      <path id="パス_8" data-name="パス 8" d="M173.294,20.944h-2.577a1.171,1.171,0,0,0-.864.441l-3.987,5.531a.153.153,0,0,1-.275,0L161.6,21.385a1.17,1.17,0,0,0-.864-.441h-2.577a.625.625,0,0,0-.624.624V32.176a.626.626,0,0,0,.624.625H159.7a.625.625,0,0,0,.624-.625V23.993l3.484,4.783a1.177,1.177,0,0,0,.864.44h2.108a1.176,1.176,0,0,0,.864-.44l3.484-4.783v8.183a.626.626,0,0,0,.624.625h1.54a.625.625,0,0,0,.624-.625V21.568A.624.624,0,0,0,173.294,20.944Z" transform="translate(-23.17 -0.523)" fill="#0052a4"/>
      <path id="長方形_1" data-name="長方形 1" d="M.787,0H2a.788.788,0,0,1,.788.788v10.28A.789.789,0,0,1,2,11.857H.788A.788.788,0,0,1,0,11.069V.787A.787.787,0,0,1,.787,0Z" transform="translate(154.026 20.421)" fill="#0052a4"/>
      <g id="グループ_1" data-name="グループ 1" transform="translate(194.663 18.424)">
        <path id="パス_9" data-name="パス 9" d="M253.282,21.416a1.049,1.049,0,0,0,1.046,1.045h6.578c.575,0,.711.333.306.737l-8.863,8.865a1.048,1.048,0,0,1-1.479,0L242.007,23.2c-.406-.4-.268-.737.307-.737h6.578a1.048,1.048,0,0,0,1.044-1.045V19.467a1.045,1.045,0,0,0-1.044-1.043H234.685a1.045,1.045,0,0,0-1.043,1.043V33.674a1.047,1.047,0,0,0,1.043,1.043h1.95a1.048,1.048,0,0,0,1.043-1.043V27.1c0-.574.333-.712.738-.307l7.192,7.192a2.9,2.9,0,0,0,1.781.738h8.437a2.906,2.906,0,0,0,1.783-.738l7.191-7.192c.408-.4.738-.266.738.307v6.579a1.048,1.048,0,0,0,1.044,1.043h1.949a1.048,1.048,0,0,0,1.045-1.043V19.467a1.045,1.045,0,0,0-1.045-1.043H254.327a1.046,1.046,0,0,0-1.046,1.043Z" transform="translate(-233.642 -18.424)" fill="#0052a4"/>
        <path id="パス_10" data-name="パス 10" d="M265.539,50.916c0,.574-.33.712-.738.308l-7.168-7.169a2.908,2.908,0,0,0-1.783-.736h-8.484a2.908,2.908,0,0,0-1.783.736l-7.168,7.169c-.406.4-.738.266-.738-.308V44.341a1.049,1.049,0,0,0-1.043-1.047h-1.95a1.046,1.046,0,0,0-1.043,1.047v14.2a1.048,1.048,0,0,0,1.043,1.047h14.206a1.048,1.048,0,0,0,1.044-1.046V56.6a1.046,1.046,0,0,0-1.044-1.043h-6.578c-.574,0-.712-.335-.307-.74l8.862-8.864a1.054,1.054,0,0,1,1.479,0l8.863,8.864c.406.4.269.74-.306.74h-6.578a1.047,1.047,0,0,0-1.046,1.043v1.949a1.049,1.049,0,0,0,1.046,1.046h14.205a1.048,1.048,0,0,0,1.045-1.047v-14.2a1.046,1.046,0,0,0-1.045-1.047h-1.949a1.049,1.049,0,0,0-1.044,1.047Z" transform="translate(-233.642 -23.59)" fill="#0052a4"/>
      </g>
      <g id="グループ_2" data-name="グループ 2" transform="translate(46 37.24)">
        <path id="パス_11" data-name="パス 11" d="M55.98,42.538h.768L59.194,46.2l2.447-3.665h.768v6.717H61.65V43.814l-2.447,3.6h-.038l-2.447-3.589v5.431H55.98Z" transform="translate(-48.073 -42.25)" fill="#4d4d4d"/>
        <path id="パス_12" data-name="パス 12" d="M65.86,48.255v-.019c0-1.065.864-1.622,2.121-1.622a5.179,5.179,0,0,1,1.516.212v-.154c0-.883-.537-1.344-1.468-1.344a3.459,3.459,0,0,0-1.507.355l-.22-.6a4.063,4.063,0,0,1,1.8-.422,2.2,2.2,0,0,1,1.6.547,1.961,1.961,0,0,1,.518,1.459V49.7H69.5v-.738a2.176,2.176,0,0,1-1.785.844A1.665,1.665,0,0,1,65.86,48.255Zm3.646-.383v-.46a5.077,5.077,0,0,0-1.449-.212c-.921,0-1.449.4-1.449,1v.019c0,.624.576.988,1.248.988A1.484,1.484,0,0,0,69.506,47.872Z" transform="translate(-50.126 -42.69)" fill="#4d4d4d"/>
        <path id="パス_13" data-name="パス 13" d="M72.834,47.231v-.019A2.584,2.584,0,0,1,77.363,45.5l-.489.518a2.006,2.006,0,0,0-1.507-.748,1.83,1.83,0,0,0-1.775,1.919v.019a1.854,1.854,0,0,0,1.823,1.929,2.049,2.049,0,0,0,1.516-.739l.47.441a2.566,2.566,0,0,1-4.567-1.612Z" transform="translate(-51.574 -42.682)" fill="#4d4d4d"/>
        <path id="パス_14" data-name="パス 14" d="M80.222,44.731h.738v1.3a2.126,2.126,0,0,1,2.025-1.382v.8h-.058a2,2,0,0,0-1.967,2.275v1.977h-.738Z" transform="translate(-53.109 -42.687)" fill="#4d4d4d"/>
        <path id="パス_15" data-name="パス 15" d="M84.472,47.231v-.019a2.586,2.586,0,0,1,5.172-.019v.019a2.576,2.576,0,0,1-2.6,2.591A2.541,2.541,0,0,1,84.472,47.231Zm4.414,0v-.019a1.877,1.877,0,0,0-1.842-1.938,1.831,1.831,0,0,0-1.813,1.919v.019a1.862,1.862,0,0,0,1.833,1.929A1.831,1.831,0,0,0,88.886,47.231Z" transform="translate(-53.992 -42.682)" fill="#4d4d4d"/>
        <path id="パス_16" data-name="パス 16" d="M92.681,44.726h.739v.835a1.811,1.811,0,0,1,1.6-.94,1.685,1.685,0,0,1,1.592.989,1.976,1.976,0,0,1,1.746-.989,1.783,1.783,0,0,1,1.842,2v3.071h-.738v-2.9c0-.959-.48-1.5-1.286-1.5a1.389,1.389,0,0,0-1.372,1.535v2.859h-.729V46.77c0-.931-.49-1.478-1.276-1.478a1.437,1.437,0,0,0-1.382,1.564v2.831h-.739Z" transform="translate(-55.697 -42.682)" fill="#4d4d4d"/>
        <path id="パス_17" data-name="パス 17" d="M104.18,42.356h.876v.815h-.876Zm.08,1.9H105v4.961h-.738Z" transform="translate(-58.086 -42.212)" fill="#4d4d4d"/>
        <path id="パス_18" data-name="パス 18" d="M107.5,42.174h.739l.032,7.005h-.738Z" transform="translate(-58.775 -42.174)" fill="#4d4d4d"/>
        <path id="パス_19" data-name="パス 19" d="M110.683,42.174h.738l.032,7.005h-.738Z" transform="translate(-59.437 -42.174)" fill="#4d4d4d"/>
        <path id="パス_20" data-name="パス 20" d="M115.42,45.885v-.019a3.344,3.344,0,0,1,3.336-3.474,3.62,3.62,0,0,1,2.536.893l-.49.576a2.853,2.853,0,0,0-2.043-.768,2.623,2.623,0,0,0-2.553,2.754v.019a2.6,2.6,0,0,0,2.658,2.793,3.163,3.163,0,0,0,1.938-.672v-1.67h-2.043v-.681h2.773v2.677a4.067,4.067,0,0,1-2.7,1.027A3.294,3.294,0,0,1,115.42,45.885Z" transform="translate(-60.421 -42.219)" fill="#4d4d4d"/>
        <path id="パス_21" data-name="パス 21" d="M125.131,44.731h.738v1.3a2.126,2.126,0,0,1,2.025-1.382v.8h-.058a2,2,0,0,0-1.967,2.275v1.977h-.738Z" transform="translate(-62.438 -42.687)" fill="#4d4d4d"/>
        <path id="パス_22" data-name="パス 22" d="M129.38,47.231v-.019a2.586,2.586,0,0,1,5.172-.019v.019a2.576,2.576,0,0,1-2.6,2.591A2.541,2.541,0,0,1,129.38,47.231Zm4.415,0v-.019a1.878,1.878,0,0,0-1.843-1.938,1.831,1.831,0,0,0-1.813,1.919v.019a1.862,1.862,0,0,0,1.833,1.929A1.831,1.831,0,0,0,133.795,47.231Z" transform="translate(-63.321 -42.682)" fill="#4d4d4d"/>
        <path id="パス_23" data-name="パス 23" d="M137.19,47.834v-3.08h.739v2.9a1.323,1.323,0,0,0,1.372,1.5,1.465,1.465,0,0,0,1.487-1.555v-2.84h.729v4.961h-.729v-.864a1.89,1.89,0,0,1-1.7.969A1.812,1.812,0,0,1,137.19,47.834Z" transform="translate(-64.943 -42.71)" fill="#4d4d4d"/>
        <path id="パス_24" data-name="パス 24" d="M144.624,44.726h.738v1a2.231,2.231,0,0,1,1.9-1.1,2.42,2.42,0,0,1,2.37,2.572v.019a2.429,2.429,0,0,1-2.37,2.581,2.238,2.238,0,0,1-1.9-1.055v2.485h-.738Zm4.251,2.495V47.2a1.786,1.786,0,0,0-1.746-1.919,1.85,1.85,0,0,0-1.794,1.909v.019a1.846,1.846,0,0,0,1.794,1.92A1.751,1.751,0,0,0,148.875,47.221Z" transform="translate(-66.487 -42.682)" fill="#4d4d4d"/>
        <path id="パス_25" data-name="パス 25" d="M153.91,47.231v-.019a2.584,2.584,0,0,1,4.529-1.708l-.49.518a2,2,0,0,0-1.506-.748,1.83,1.83,0,0,0-1.775,1.919v.019a1.854,1.854,0,0,0,1.823,1.929,2.047,2.047,0,0,0,1.516-.739l.47.441a2.566,2.566,0,0,1-4.567-1.612Z" transform="translate(-68.416 -42.682)" fill="#4d4d4d"/>
        <path id="パス_26" data-name="パス 26" d="M160.764,47.231v-.019a2.586,2.586,0,0,1,5.171-.019v.019a2.576,2.576,0,0,1-2.6,2.591A2.541,2.541,0,0,1,160.764,47.231Zm4.413,0v-.019a1.877,1.877,0,0,0-1.842-1.938,1.831,1.831,0,0,0-1.813,1.919v.019a1.862,1.862,0,0,0,1.833,1.929A1.831,1.831,0,0,0,165.177,47.231Z" transform="translate(-69.84 -42.682)" fill="#4d4d4d"/>
        <path id="パス_27" data-name="パス 27" d="M168.791,44.726h.738v.835a1.813,1.813,0,0,1,1.6-.94,1.686,1.686,0,0,1,1.593.989,1.976,1.976,0,0,1,1.746-.989,1.783,1.783,0,0,1,1.842,2v3.071h-.738v-2.9c0-.959-.48-1.5-1.286-1.5a1.389,1.389,0,0,0-1.372,1.535v2.859h-.73V46.77c0-.931-.489-1.478-1.276-1.478a1.437,1.437,0,0,0-1.383,1.564v2.831h-.738Z" transform="translate(-71.508 -42.682)" fill="#4d4d4d"/>
        <path id="パス_28" data-name="パス 28" d="M180.286,44.726h.738v1a2.231,2.231,0,0,1,1.9-1.1,2.42,2.42,0,0,1,2.37,2.572v.019a2.429,2.429,0,0,1-2.37,2.581,2.238,2.238,0,0,1-1.9-1.055v2.485h-.738Zm4.251,2.495V47.2a1.786,1.786,0,0,0-1.746-1.919A1.85,1.85,0,0,0,181,47.193v.019a1.846,1.846,0,0,0,1.794,1.92A1.751,1.751,0,0,0,184.537,47.221Z" transform="translate(-73.896 -42.682)" fill="#4d4d4d"/>
        <path id="パス_29" data-name="パス 29" d="M187.6,48.255v-.019c0-1.065.864-1.622,2.121-1.622a5.179,5.179,0,0,1,1.516.212v-.154c0-.883-.537-1.344-1.468-1.344a3.453,3.453,0,0,0-1.506.355l-.221-.6a4.066,4.066,0,0,1,1.8-.422,2.2,2.2,0,0,1,1.6.547,1.961,1.961,0,0,1,.518,1.459V49.7h-.73v-.738a2.174,2.174,0,0,1-1.785.844A1.665,1.665,0,0,1,187.6,48.255Zm3.646-.383v-.46a5.077,5.077,0,0,0-1.449-.212c-.921,0-1.448.4-1.448,1v.019c0,.624.576.988,1.247.988A1.483,1.483,0,0,0,191.244,47.872Z" transform="translate(-75.415 -42.69)" fill="#4d4d4d"/>
        <path id="パス_30" data-name="パス 30" d="M195.081,44.726h.739v.864a1.877,1.877,0,0,1,1.7-.969,1.812,1.812,0,0,1,1.9,1.986v3.08h-.738v-2.9a1.322,1.322,0,0,0-1.372-1.5,1.459,1.459,0,0,0-1.487,1.554v2.84h-.739Z" transform="translate(-76.969 -42.682)" fill="#4d4d4d"/>
        <path id="パス_31" data-name="パス 31" d="M201.94,51.03l.249-.585a1.549,1.549,0,0,0,.777.183c.441,0,.72-.231,1.017-.931l-2.255-4.942h.815l1.8,4.136,1.593-4.136h.787l-2.082,5.124c-.422,1.027-.9,1.4-1.65,1.4A2.25,2.25,0,0,1,201.94,51.03Z" transform="translate(-78.35 -42.71)" fill="#4d4d4d"/>
        <path id="パス_32" data-name="パス 32" d="M46,48.255v-.019c0-1.066.864-1.622,2.121-1.622a5.208,5.208,0,0,1,1.516.211v-.154c0-.883-.537-1.343-1.468-1.343a3.453,3.453,0,0,0-1.506.355l-.221-.6a4.063,4.063,0,0,1,1.8-.422,2.2,2.2,0,0,1,1.6.547,1.963,1.963,0,0,1,.519,1.459v3.032h-.73v-.738a2.175,2.175,0,0,1-1.785.845A1.665,1.665,0,0,1,46,48.255Zm3.646-.384v-.46A5.108,5.108,0,0,0,48.2,47.2c-.921,0-1.448.4-1.448,1v.019c0,.624.575.989,1.247.989A1.483,1.483,0,0,0,49.646,47.871Z" transform="translate(-46 -42.69)" fill="#4d4d4d"/>
      </g>
    </g>
  </g>
</svg>
