<svg xmlns="http://www.w3.org/2000/svg" width="422.64" height="89.625" viewBox="0 0 422.64 89.625">
  <path id="パス_2478" data-name="パス 2478" d="M29.6-76.64c-.32-.16-.56-.16-.56.08C29.28-76.4,29.68-76.32,29.6-76.64Zm-3.44,0c-.4,0-.8-.24-.8.24A3.048,3.048,0,0,0,26.16-76.64ZM28-63.04c0-.16.24-.16,0-.4C28-63.2,27.76-63.2,28-63.04ZM-3.44-57.92c-.08-.56.48-.72.16-.96C-3.44-58.48-3.68-58-3.44-57.92Zm-.96,3.04c0,.32-.16.4.24.64C-3.92-54.48-4.16-54.72-4.4-54.88Zm17.28,5.52c0-.16.16-.24.16-.48C12.8-50,12.56-49.52,12.88-49.36ZM63.84-39.2c0-.16.24.24.48.24C64.32-39.04,64.08-39.6,63.84-39.2Zm-2.32,6.96c-.24,1.12-1.12,2.72-.8,3.36C61.04-29.28,61.84-32.24,61.52-32.24Zm.32,1.76-.24.24C62-29.68,62.08-30.56,61.84-30.48Zm-.32.56c-.16.4.08.88.24.48C61.6-29.52,61.6-29.76,61.52-29.92Zm-.24.64c0,.32,0,.4.24.48C61.6-28.96,61.76-29.28,61.28-29.28ZM58.72-24.8a1.635,1.635,0,0,1,.4-.72c.4-.4,1.6-2.96,1.28-3.36A17.6,17.6,0,0,0,58.72-24.8Zm-1.76,3.76a15.985,15.985,0,0,0,1.2-3.04C57.92-23.12,56.88-22.24,56.96-21.04ZM-1.92-22.48c-.08.4-.56,3.92-.24,3.68C-2.4-19.6-1.68-21.04-1.92-22.48ZM53.44-14.4C53.76-13.92,52.96-13.92,53.44-14.4ZM52.4-13.12c0,.24-.48.24-.16.32C52.4-12.88,52.56-13.12,52.4-13.12ZM-2.96-16.64c.24-.24.24-.4-.08-.56C-3.2-17.04-3.04-16.88-2.96-16.64Zm-.48-.24C-3.04-16.64-3.52-16.08-3.44-16.88Zm-.08,1.12s.08.4.24.24C-3.28-15.76-3.28-16.16-3.52-15.76Zm.08.72C-2.72-14.96-3.52-14.4-3.44-15.04ZM2.4-34.56c-.16.32-.96.8-.48,1.2C2.16-34.32,2.32-33.84,2.4-34.56ZM5.68-68.24c-.72,0-3.04,2.24-3.12,2.8.08,0,.24-.24.4,0-.8.56-1.68.8-1.76,1.52,0-.32-.72.48-.72.48,0,.24.24,0,.24.24-.24,1.04-2.08,1.12-1.76,2.48-.32.24-.24,0-.64,0-.08-.64.88-1.44.56-1.84-.8,1.12-1.36,2.48-2.16,3.6.64,0,.32-.64.88-.88-.32.72-.64,2.56-1.28,2.4,0,.24.4.24.4.4-.24,0-.24.56-.4.24-.24-.24.24-.48-.16-.4-.08.4-.48.96-.08,1.6,0-.72.24-.4.48-.64-.08.64.16,1.36-.24,1.52,0-.24.4-1.04,0-1.28-.16,1.12,0,2.08-.16,2.96-.24-.08-.32-.64-.8-.16.56,4.24,2.24,6.56,5.12,9.44A29.052,29.052,0,0,0,5.6-39.84c-.48.72-2.24,2.88-2.24,3.76,1.04-.88,1.44-2.72,2.56-3.44C4-36.72,2.64-34.16,1.28-31.76a.862.862,0,0,0-.64-.16c-.48,2-1.52,3.44-1.76,5.44-.24,1.04-1.28,3.04-.4,3.6,0-.32.4-2.16.72-2a.79.79,0,0,0,.16.48,3.443,3.443,0,0,0,0-1.28c0,.4,0,.64-.24.64.24-.48-.16-1.68.56-1.68a1.462,1.462,0,0,0,.8-1.44,2.923,2.923,0,0,1,.24-1.2c.48-.32.24-.32.24-.56,0-.56.48-.8.56-1.28.24-1.2,1.44-2.56,2.08-4a33.7,33.7,0,0,1,2.72-4.16c.16.32.24.16.48.32C3.6-33.76-.4-27.68-1.04-20.88c.48-.64.24-1.92.96-2.32-.32.72-.56,2.88-.96,3.36-.24-.24.24-.8-.08-.96-.16.48-.56,1.44-.16,1.76.16-.32-.08-1.04.4-.64-.24.64-.24,1.52-.48,2.24-.32-.32.48-1.36-.16-1.68,0,.4-.72.16-.24.8,0-.16.08-.24.24-.4,0,.4-.4,1.44-.4,1.2-.32,1.76.16,3.28,0,4.88.24.08.32.08.4.32-.4.32.16.88-.16.8a6.582,6.582,0,0,1-.56-4.24c0-.4.08-2.56-.24-2.56A24.975,24.975,0,0,0-2-10.16c.64-.16-.4-.88.08-1.28a17.848,17.848,0,0,0,.8,3.92A1.126,1.126,0,0,0-1.68-8C-.88-3.76,2,.08,5.68,3.12a25.572,25.572,0,0,0,11.6,5.6,32.826,32.826,0,0,0,18.56-2.4,58.308,58.308,0,0,0,23.28-20.4c6.32-9.44,10.4-21.68,7.84-33.2a31.8,31.8,0,0,0-3.92-10.16c-.64-1.12-1.6-2.08-2.24-3.36-.8-1.12-2.72-2.32-2.8-3.44-.24-1.2-3.12-2.4-4-3.12a14.343,14.343,0,0,0-2.96-2.48c-.64-.4-2.72-2.56-3.52-2.32-.24-.24-1.76-1.6-2.24-.96,0-.24-.72-.64-.96-.72l-.56.24c-.24-.24,0-.4,0-.72-.48-.72-3.04-1.44-4.56-1.92-.08-.32-.72-.32-.96-.16-.48-.24-.72-.48-1.12,0a4.071,4.071,0,0,1,2.48,1.04c-.24-.08-.64-.24-.8.16.08-.72-.56.08-.48-.16,0-.32.32-.08.32-.32-2.56-1.2-6.24-1.2-8.96-.88-.16.64,2.96,0,3.44.48a19.276,19.276,0,0,1-3.04,0c-.4,0-.56,0-.64-.24a3.044,3.044,0,0,1-1.2.4,13.689,13.689,0,0,0-3.12.08c-.48.16-1.36.64-1.92.4.16,0,.16,0,.24-.16-1.92-.08-3.52.8-5.04,1.2-.32.16,0,.32-.24.32-.56,0-2.4.88-2.72.48-.08.96-1.28.48-1.92,1.04,0-.24.16-.24.4-.48-.72.16-.4.72-.88.88-.4,0-.64-.48-.96,0,0,.24.56,0,.56.24-.72,0-.88.4-1.12.16-.32-.24-1.04,0-.64.32C9.52-71.36,6.88-69.28,5.68-68.24ZM-4.08-52.32c.4.32.88,2.48,1.04,2.96A5.117,5.117,0,0,1-4.08-52.32Zm1.68-5.44a6.171,6.171,0,0,1,.64-2.96c.4.64.08.48.64.24A12.374,12.374,0,0,0-2.4-57.76ZM1.04-31.6c.48.4-.08.64-.32,1.12C.48-30.8.96-31.2,1.04-31.6ZM64.4-41.92c.64,0,0,.24.48.48C64.32-41.04,64.4-41.68,64.4-41.92ZM40.72-75.36c.16.24-.88,0-.88-.48A1.171,1.171,0,0,0,40.72-75.36Zm-6.88-.8c0,.24-.24,0-.48.08C33.36-76.4,33.84-76.16,33.84-76.16ZM8.88-70.24a1.135,1.135,0,0,1-1.2.72C8.16-69.68,8.48-70.24,8.88-70.24Zm46,54.96v-.32C55.2-16.08,55.2-15.28,54.88-15.28Zm.8-1.36c-.08,0,.24-.64.48-.4C56.32-16.8,55.84-16.88,55.68-16.64Zm2-1.68a2.55,2.55,0,0,1,.48-1.36C58.4-19.12,57.84-18.72,57.68-18.32Zm5.92-19.2c.16.4.8-.32.72.4,0,.24-.32.24-.24,0a26.574,26.574,0,0,0-1.04,4.4c-1.52,4.88-3.04,9.6-5.92,13.92a25.329,25.329,0,0,0-2.24,2.88c-.32-.4.48-.4.32-.96a24.121,24.121,0,0,0-1.68,2.4c.4.24.64-1.04,1.12-1.28.16.72-1.68,3.12-2.48,3.44.24,0,.24-.08.48-.08a1.109,1.109,0,0,1-.88.96c-.48-.32.4-.56.4-1.12-1.2.88-1.76,2.4-2.56,3.2-.56.4-1.2.64-1.36.96A8.2,8.2,0,0,0,46.8-6.88c-.56.4-1.12.4-1.52.96-.16.48-.24.72-.88.88-.64.24-.64.64-1.2,1.04-.48.8-2.96,2.48-3.6,2.32C40.72-3.04,42.88-4,44.16-5.44,45.6-6.72,47.12-8,48.56-9.12c0-.24-.16-.48-.32-.48.16-.48.32,0,.64.24-.08-.24,0-.8-.24-.8s-.56.32-.88,1.2c-.48.56-1.12.88-1.52,1.44A31.606,31.606,0,0,0,42.88-4.4c.32-1.04,1.28-1.52,2-2.08.24-.16.56-1.04.96-1.04-.8-.08-2.64,2.32-3.12,2.64A37.327,37.327,0,0,1,36.96-.56a31.983,31.983,0,0,1-4.64,2.64,22.149,22.149,0,0,1-5.84,2.08,20.022,20.022,0,0,0,2-.72c-2.72.48-6,1.52-8.8,1.52.24-.56.96-.32,1.52-.56-.88-.08-1.68.08-2.64,0-3.84-.16-7.84-.56-11.04-2.88C-1.12-4.8,1.12-17.44,4.16-25.52c.64-1.44.8-2.24,1.28-3.36.24-.64.8-.8,1.04-1.68a1.693,1.693,0,0,1,.32-1.12c1.36-1.36,2.48-4.16,3.76-5.76a48.41,48.41,0,0,0,13.2,2.4c-.16-.4-.56-.32-1.28-.4.72-.48,2.16.24,3.2.24.24-.4-.16-.64-.56-.72a10.2,10.2,0,0,1,1.52.08c-1.36-.48-3.44-.56-4.64-.88.24-.16,1.28-.16,1.52-.48-2.4-.48-2.24-.32-5.12-.8-.64-.08,0-.24-.32-.48-2.48-.4-4.16-.72-5.68-1.68,6.96-9.92,16.4-19.76,28.96-21.52,2-.16,4.32-.16,6,.72C49.6-59.76,48.4-58,48.8-56c.8-.24.24-.8.8-1.52.24.4.24,1.28.72,1.52.16,0,0-.24,0-.48.24.4.24.48.48.48.48-.48,1.6-1.52,1.12-2.24.32-.24.48.56.64.72,0-3.2-2.88-5.76-5.44-7.12-2.96-1.76-6-1.6-9.28-2.08,0,.48.48.24.8.48-.56.48-1.6.32-2.32.48-.48.08-.72.4-1.2.72-.48.16-1.2.16-1.52.32a19.757,19.757,0,0,0-6.96,2.88A7.737,7.737,0,0,0,23.6-59.6c-.56.48-1.28.72-2.08,1.36-.56.56-3.12,2.48-4.56,4-.08.56.16.56-.24.8v-.4c-.48.24-.72.72-1.12.72,0,0,.32.32.4.16-2.72,3.2-5.84,6.96-8.72,10.8-.08-.48,1.6-2.56,1.92-2.8.32-.32,2-2.32,2.24-2.72a6.052,6.052,0,0,0,.96-1.36,36.77,36.77,0,0,0-5.6,6.56c-.56-.08-.64-.24-1.2-.56A11.773,11.773,0,0,1,.16-49.36C-.88-51.84-.8-57.04,1.2-59.12c.48-.16.72-.96,1.2-1.6.4-.72,1.04-.88,1.2-1.44.32-.88,1.84-1.52,2.4-2.24,2.72-2.88,7.04-5.12,10.72-6.64,8.08-3.04,17.76-3.92,26.16-.88a27.684,27.684,0,0,1,8.56,5.12,25.86,25.86,0,0,1,4.32,4.56,37.135,37.135,0,0,1,6.16,10.48,31.356,31.356,0,0,1,1.68,6.48c.24,0,.24,0,.24-.24.8,1.12-.24,2.88.48,4.32-.16,0-.16-.48-.24-.48-.32.32.24.72.56.8-.8.32-.48.72-.56,1.44.24,0,.24-.4.32-.48.32.32-.24,1.68,0,1.92-.56.4-.08-.48-.08-.72C63.84-38.56,63.84-37.84,63.6-37.52ZM42.24-4.16c.16.4-.24.16-.48.4C41.76-3.76,41.84-4.4,42.24-4.16ZM23.36-57.76c-4.4,4.16-8.72,8-12.24,12.64A33.406,33.406,0,0,1,8.4-41.76c0-.08-.32-.16-.56-.16a61.278,61.278,0,0,1,4.24-5.28c1.44-1.68,2.48-3.12,3.92-4.8.24,0,.16.16.48-.56.24-.16.48-.16.64-.4.24-.16.24-.88.96-.88.32.16-.32.4-.32.64C19.68-54.08,21.12-57.28,23.36-57.76Zm-4.48,3.04c.32.24-.24.4-.24.72C18.4-54.32,18.88-54.32,18.88-54.72Zm4.72-4.16c.24.4-.56.72-.88,1.12C22.72-58.24,23.6-58.48,23.6-58.88Zm40.8,18.8c-.08-.32,0-.48.48-.32C64.72-40.4,64.88-39.92,64.4-40.08ZM28-76.8c-.4.16-.8-.24-.96.16C27.44-76.64,27.76-76.56,28-76.8ZM13.52-73.12c-.32,0-.88.08-.72.48C13.04-72.88,13.92-73.2,13.52-73.12ZM5.2-68.56c0-.24.8-.48.56-.48C5.44-69.04,4.88-68.88,5.2-68.56Zm-1.28.24c-.64.56-2.72,2.48-2.96,3.44.24,0,2.24-2.56,3.44-3.28Zm22.32,6c.24-.24.8-.24.96-.56C26.72-63.04,26.16-62.4,26.24-62.32Zm-.8.4c.08,0,.56,0,.72-.24C25.76-62.32,25.28-61.68,25.44-61.92Zm-1.12.8c.32,0,.96-.48.8-.56C24.88-61.44,24.4-61.44,24.32-61.12ZM.32-64c-.4.08-1.36,1.2-1.12,1.2A15.358,15.358,0,0,0,.32-64ZM14.16-51.04c.4.16.96-1.28.64-.96C14.56-51.6,14.16-51.52,14.16-51.04Zm-.48.16c.08.56-.4.24-.4.64C13.52-50.24,14.16-50.8,13.68-50.88ZM60.88-28a1.61,1.61,0,0,0,.64-.64.588.588,0,0,1-.48-.16C61.28-28.24,60.88-28.48,60.88-28ZM2.56-34.72a3.606,3.606,0,0,1,.8-1.12C2.8-35.92,2.48-35.04,2.56-34.72ZM56.64-21.04c-.56,1.2-1.76,2.08-2,3.28C55.44-18.72,56.64-20.08,56.64-21.04Zm-3.2,4.88c.48-.16.96-1.04.8-1.36C54.24-16.88,53.68-16.88,53.44-16.16ZM24.16-36.72c.32,0,1.28.4,1.44.16C25.2-36.72,24.56-37.28,24.16-36.72ZM67.76-6.48v-.08a35.756,35.756,0,0,0-.56,4.4A37.08,37.08,0,0,0,69.92,1.6a5.577,5.577,0,0,0,3.76,1.44c6.4,0,10.08-8.32,12.48-8.32,1.76,0,2.56,4.72,6.96,4.72,5.6,0,11.44-6,14.8-9.44a10.59,10.59,0,0,0,1.6-2.56c.64-1.44,2-3.04,2-4.24a1.476,1.476,0,0,0-.4-.96c-2.8,2.16-6.24,5.6-9.76,8.24-2.4,1.84-5.68,4.4-8.08,4-.4-.4-.4-.4-.4-.8,0-.24.24-.96.32-1.36.56-2.88,3.12-6.72,3.12-8.8,0-2.4-2.8-3.12-5.92-3.52,0,.08-.4.64-.4.72,0,1.2-.8.48-.8,2.08,0,.24-.64.88-.64,1.12a11.034,11.034,0,0,1-3.2,4.16c-.16.24.32-.48.8-1.28.32-.48.16-.48,0-.4-.4.32-2.96,2.72-3.36,3.12-2.64,2.32-5.12,5.28-8.08,6.16a1.108,1.108,0,0,1-.8-1.2c0-4,5.76-14,5.76-17.44,0-1.92-1.28-3.12-5.6-3.2-.48,4.8-4,9.84-4.72,13.2a2.627,2.627,0,0,0,.32,2.16c-.16,0-.88-.08-.96.24a1.032,1.032,0,0,1,.96.96c0,.08-.4,1.2-.56,1.2,0,.88,0,1.44-.24,1.44-.08,0-.32-.32-.48-.72,0,.72.32,1.2.32,1.68,0,.24-.16.48-.32.48v-.96c-.8,0,.32,1.52-.48,1.52C67.68-4.96,67.76-6.08,67.76-6.48ZM69.36-10c-.24.08-.4.64,0,.72ZM68.08-7.68c-.4.08-.32.8-.32,1.2.56,0,.32-.8.32-1.2h.32C68.32-7.92,68.32-7.92,68.08-7.68ZM136.8-22.8a4.182,4.182,0,0,0-1.28-.48c-.4-.24-1.84-1.44-2.32-1.28-.16,0-.16-.32-.4-.32a1.683,1.683,0,0,0-1.2-.4c.24.16.32.32.24.32a7.459,7.459,0,0,0-4.16-.16c.16-.08-.16.4-.16.56.32-.16.8-.64,1.12-.16,0,.24-2.24.56-2.8.96-.8.24-3.12,1.04-3.44,2-.08.24.4-.56.64-.16-.72.16-.32.4-1.04.8l.08-.4c0,.24-.8.16-.48.16-.72,0-.08.24-.56.24.08.72-.56,0-.72.72.4,0,.72-.16.72.24-.56-.4-.4.48-.96.4.16-.24-.4.08-.56.08a2.16,2.16,0,0,1,0,.72c-.4.4-1.28.16-1.44.4-.4.4.16.24.24.24-.32.72-1.44.8-1.04,1.2-.8.64-1.28,1.44-1.84,1.92-.16-.56.56-.88,0-.88.4-.32.4-1.04.4-1.44a7.715,7.715,0,0,0,.8-2.4,26.364,26.364,0,0,1,1.2-3.76A3.281,3.281,0,0,0,116.48-26a.8.8,0,0,1-.4-.8,1.658,1.658,0,0,1-.16.48c-.24-.88-.4-.8-.4-1.36-.4-.32-1.44-.08-1.6-.08-.08.08-.64.16-.32.48-.72-.24-.56-.32-1.36-.32-.24.32,0,.64-.16.8.16.4-.48,1.12-.48,1.52a.938.938,0,0,1,.8-.72c.08.88-.72,1.2-.96,1.92-.16.4.08.4.08.8.08.32-.24.32-.32.72,0,.4-.56,1.04-.72,1.2a81.347,81.347,0,0,1-2.4,9.44,21.248,21.248,0,0,1-1.28,4.64c.32.08.24.32,0,.4a20.365,20.365,0,0,1-.56,2.56c-.16-.08-.16-.48-.24-.48a7.775,7.775,0,0,1-.56,1.52,2.735,2.735,0,0,1,.96,1.92c.24,0,.32,0,.32.16-.24.64.56.88.8,1.12.88.88.48.96,1.68,1.36.24.64,1.68.96,2.24.64,0,0-.16-.48,0-.64.56,0,.24,0,.24-.56.24-.72.8-1.12.96-2-.16,0-.24,0-.24-.08.24-.24.08-.64.4-.8.08.24-.16.4.08.48.56-.32-.16-1.84.72-1.2,0-.72.88-1.28.8-2,0,.32-.4.72-.48.4a20.778,20.778,0,0,1,4.16-6.24c.24-.24.32,0,.56,0,0-.64.8-.8.64-1.6A21.753,21.753,0,0,0,122-14.96a2.561,2.561,0,0,0,1.52-1.36,29.587,29.587,0,0,1,5.52-3.28,12.58,12.58,0,0,1,5.6-1.36c.8.16,2.24.88,2.96.56.24-.08.08-.56.24-.72C138.24-21.36,137.28-22.48,136.8-22.8ZM115.04-6.16c-.16.48-.4.64-.4,1.04C115.04-5.2,115.12-6.4,115.04-6.16ZM226.32-69.68c.24.48.24,1.36.8,1.2.4,1.52-.4,3.28-.24,4.4.56-1.68,1.04-2.4.56-4.64C226.56-68.32,227.04-69.6,226.32-69.68Zm.72,1.92c-.08.08-.4.8,0,.88C226.88-67.28,227.36-67.68,227.04-67.76Zm.08,5.6c-.56-.24-.48.4-.64.64C227.04-61.36,226.96-62,227.12-62.16Zm-42.48.96c-.16.4,0,.64.08.32C184.72-60.96,184.72-61.6,184.64-61.2Zm.48.72c.24.48-.16,2.32,0,2.8a10.74,10.74,0,0,0,.32-2.8C185.44-60.56,185.28-60.56,185.12-60.48Zm-.48,0a16.766,16.766,0,0,0-.16,4A17.089,17.089,0,0,0,184.64-60.48Zm44,6.16c-1.2,1.2-1.76,3.2-2.8,4.8.8,0,.8-.88,1.2-1.44.08-.24.4-.32.4-.56a3.048,3.048,0,0,1,.24-.8C227.92-53.12,228.72-53.68,228.64-54.32Zm-4.08,1.36c0,.24-.64.8-.32.96C224.56-52.16,225.12-52.8,224.56-52.96ZM184.48-52s-.24.72,0,.72C184.48-51.52,184.88-52,184.48-52Zm39.28.48c.08.4-.8.64-.32.96C224.08-50.48,224.48-51.28,223.76-51.52Zm-39.52.56c.24.56-.4,1.2,0,1.44C184.16-50,184.72-50.96,184.24-50.96Zm41.52,1.76c-.4.08-.08.4-.32.8-.32.72-1.52,1.28-.88,1.92a1.776,1.776,0,0,1,.88-1.28C225.76-48.32,226.24-49.12,225.76-49.2Zm-1.68,3.12c-.24.16-.64.72,0,.8C223.84-45.76,224.64-45.92,224.08-46.08Zm-.8,1.28c0,.32-.32.24-.24.64C223.36-44.08,223.68-44.72,223.28-44.8Zm-5.44,2.72a3.211,3.211,0,0,0-.96,1.76C217.28-40.72,217.92-41.6,217.84-42.08Zm2.8,1.92c0,.56-.32.48-.4.88C220.64-39.28,221.12-40.16,220.64-40.16Zm-4.08.16c-.48,1.04-1.52,2.32-1.68,3.2.64-.08.64-.96,1.04-1.6C216.24-38.72,216.96-39.36,216.56-40Zm2.08,2c0,.08-.32.48,0,.48C218.72-37.6,219.04-38,218.64-38Zm-3.68,3.44c-.32-.16-.64.4-.32.4C214.64-34.4,214.88-34.4,214.96-34.56Zm.72,1.2c-.24.24-.32.64-.64.96C215.52-32.4,215.84-33.2,215.68-33.36ZM212.08-32c-.56.08-.64.4-.64,1.04C211.84-31.12,211.92-31.6,212.08-32Zm2.8,0c-.16.4-.96.72-.56,1.2C214.48-31.2,215.12-31.68,214.88-32Zm-1.84.72c.4-.48-.16-.32-.48-.08C212.72-31.36,212.88-31.28,213.04-31.28Zm-2.4,3.2c.24.16.48.16.48-.24C210.96-28.16,210.64-28.32,210.64-28.08Zm-1.28,1.12c-.4.24-1.84.96-.72,1.28C208.56-26.16,209.28-26.32,209.36-26.96Zm-2.64,3.6c.72-.16,1.2-1.84,1.44-1.92.16-.08.32-.08,0-.4A6.312,6.312,0,0,0,206.72-23.36Zm3.2-1.44c-.48-.08-.4.24-.56.4C209.76-24.32,209.76-24.8,209.92-24.8Zm-1.44,1.04c-.32-.16-.64.4-.32.4C208.24-23.6,208.48-23.6,208.48-23.76Zm-2.64,3.28c-.08.32-.4.48,0,.88C205.92-19.76,206.56-20.48,205.84-20.48ZM174.64-.16c-.48-.16-.32.4-.48.56.4-.08.16-.4.48,0Zm12.64-26.96c-.24,1.04-.24-.96,0-.96C187.68-27.92,187.36-27.36,187.28-27.12ZM196.64-8c-.32.48-.48,1.12-.96,1.28.64-.96,1.44-1.84,2.16-2.88C198.08-8.96,197.04-8.4,196.64-8ZM161.28-65.76a15.706,15.706,0,0,1,2.56-2A8.633,8.633,0,0,1,161.28-65.76ZM227.44-50c0-.4,0-.88.32-1.12C227.92-50.96,227.68-50.08,227.44-50ZM181.12-26.96c.24-.56-.16-.8.4-1.12-.08.72-.24.72,0,1.28A.47.47,0,0,0,181.12-26.96Zm32.64-.4c.08-.24.4-.16.16-.64C214.56-27.92,214.08-26.96,213.76-27.36Zm-33.44,6.48c-.4-.24-.4-.72-.24-.48.4-.8,0-1.76.8-1.76A22.914,22.914,0,0,1,180.32-20.88Zm.16.08s-.32.72-.64.64C179.92-20.48,179.84-20.96,180.48-20.8Zm-.32,2.32c0,.4-.64.32-.48-.08C179.84-18.72,179.84-18.48,180.16-18.48Zm24.56,2.56c.72-.16-.08-.4.96-.4,0-.24-.24-.24-.32-.24,0-.56.32-.64.72-.4a5.7,5.7,0,0,1-1.2,1.76A1.075,1.075,0,0,1,204.72-15.92Zm-1.36,2.4c-.08-.16.16-1.2.8-1.2,0,.24-.08.24-.08.16C204.08-14.16,203.68-13.92,203.36-13.52Zm.48,0s.08-.96.72-.8A1.2,1.2,0,0,1,203.84-13.52Zm-3.28,2c.08-.08.32-.16.32-.4C201.28-11.76,200.88-11.28,200.56-11.52Zm-22.48,1.2c-.32-.16-.16-.96.4-.88C178.48-10.8,177.84-10.88,178.08-10.32Zm-1.52,3.6c.16-.4.08-.96.4-1.28C177.28-7.68,176.96-6.8,176.56-6.72Zm-6.8-64.4c-.32.4-1.84.4-1.6,1.04C168.32-70.16,170.08-70.8,169.76-71.12Zm56.56,11.2c-.24.56-.4.72.16.72-.32.4-1.2.64-1.04,1.28.24-.24.32-.48.64-.64.08.4-.64.88-.24.64C226.32-58.56,226.72-59.28,226.32-59.92Zm-2.56,6.8c.48-.88.16-.64-.32-.16a2.417,2.417,0,0,0-.4,1.28c.08-.48-.56,2-.8.72.08.48-.56,1.2-.08,1.6-.08.08-.64,0-.64.16.4.72-.4,1.12-.56,1.52a13.574,13.574,0,0,1-1.12,1.92c-.16.32-.08.72-.32.88a13.233,13.233,0,0,0-1.2,2c0,.08-.24.64,0,.72,0-.48.96-1.04.64-1.6.96-.4,1.92-2.72,2.56-3.68.16-.16,0-.4,0-.56a29.446,29.446,0,0,0,2-3.2c.8-1.36,1.36-2.96,2.24-3.84-.72.96.72,0,.72.48,0,.08-.4.08-.4.16-.24.4,0,.56-.56.96-.16.16-.4-.16-.56.16.96.32-.4.88.16,1.6-.4.4-.8.72-.56,1.28-.08.24-1.12.32-.72.64a8.347,8.347,0,0,0-.4,1.68c-.08,0-.32-.08-.4,0-.4.4-.08.88-.56.4.16.48-.56.64.48.64-.64,0-.8,1.04-.72,1.28-.72,0-1.6,1.36-1.36,2.32-.4.16-.8.88-1.2,1.2-.16.08-.32.48.24.48-.96,1.52-1.6,3.28-3.04,4.48.24,1.04-.56,1.92-.72,2.32.96-.24,1.12-1.68,1.36-2.24.16-.08.64.4.72.32-.48-.32,0-.96.24-.96-.16-.64.4-1.2.96-2.32.64-1.28,1.52-2.08,2-3.12a7.481,7.481,0,0,0,1.12-1.52c-.32,0-.32.24-.4.32a5.963,5.963,0,0,1,.8-1.6c.32.32.48-1.12.56-1.28h.32c.32-.64.24-.88.64-1.04-.56-.56.8-.96.48-1.6.88-.08.8-1.2,1.2-1.84.08-.16.4-.16.4-.24.08-.16-.08-.56-.08-.56.4-.8,1.04-1.36,1.36-2,0,.64.8-.4.24-.4.08-.56.48-.64.64-1.04.32-.48.16-1.28.4-1.76.4-.4.64-.56.8-.96a1.352,1.352,0,0,0,.4-.16c.32-.72-.16-1.52-.16-1.68.08-.24.72-.4.32-.8-.24.4-.24.8-.72.88a5.834,5.834,0,0,0,.56-4c-.48.4-.16-.88-.24-1.28-.4-.16-.32-.72-.72-.64-.08.24.08.72-.24.72.24-.64-.4-.4-.48-.64-.16.4.8.4.24.72-.64-.16-.32,1.04-1.04,1.44.24-1.04,1.12-2.56.24-2.8a24.754,24.754,0,0,1-1.04,4.88c.32.32.48-.64.24.56.8-.08.08,1.2.88-.16,0,1.12-1.12,1.12-1.28,2.16.48.16.16-.56.56-.4,0,.8-.56.96-.88,1.44-.08.16,0,.56-.08.88-.64,0-.56,1.12-.72,1.6,0,0-.32-.08-.32,0A10.633,10.633,0,0,1,223.76-53.12Zm3.68-9.84c0-.32.24-.32.24-.72C228.16-63.76,227.84-62.96,227.44-62.96Zm1.2,2.64c0-.64.48-.88.72-1.44C229.68-61.76,229.68-60.4,228.64-60.32Zm-1.6,5.6c-.4-.88.48-1.44.72-2.08C227.92-56.32,227.28-55.36,227.04-54.72ZM226.32-56c.32-.08.4-.4.56-.56.48.16-.16,1.04-.56,1.28.16-.64-.56-.8-.16-1.2C226.56-56.4,225.92-56.16,226.32-56Zm-.56,2.4c0-.48.4-.16.56-.4C226.72-53.76,226.16-53.36,225.76-53.6Zm-4.8,9.44v-.4C221.44-44.88,221.44-44,220.96-44.16Zm5.6-19.76c.08.4-.48.8-.24,1.04C226.48-63.2,226.96-63.68,226.56-63.92Zm-1.44,3.44c-.08.32-.8.88-.4,1.2C224.64-59.76,225.36-60.16,225.12-60.48Zm4.64,3.92c-.24.56-.72.96-.88,1.6-.16.16-.64.4,0,.48C229.12-55.2,229.92-56.08,229.76-56.56Zm-45.28.16a4.106,4.106,0,0,0-.24,1.92A5.964,5.964,0,0,0,184.48-56.4Zm-.4,3.12c-.32,1.2-.24,2.4,0,1.28C184.16-52.4,184.24-53.52,184.08-53.28Zm37.84,4.88a3.157,3.157,0,0,1-.48,1.2c.48.24.48,0,.48-.4C221.92-47.76,222.56-48.4,221.92-48.4Zm-2,4.32c-.08.32-.88,0-.64.56.24,0,.24.16.56.16C219.84-43.6,220.16-44,219.92-44.08Zm2.96.16c-.16.64-1.04,1.2-.72,1.76C222.48-42.56,223.04-43.76,222.88-43.92Zm-5.04,4c-.08.24-.56.56-.16.72C217.68-39.36,218.08-39.92,217.84-39.92Zm-.96.72c-.16.24-.72.64-.32.8C216.72-38.48,217.12-39.52,216.88-39.2Zm-2.56,2.88c-.56,1.36-1.44,2.4-2.24,3.92.64,0,.96-.88,1.2-1.28.08-.24.16-.24.4-.32a1.589,1.589,0,0,0,.08-1.2C214.16-35.36,214.96-36,214.32-36.32Zm1.36.4c-.32-.08-.56.56-.32.56C215.36-35.68,215.76-35.6,215.68-35.92ZM214.24-32c.64.08,1.04-.88.32-.4a9.22,9.22,0,0,0,1.76-2.8c-.24.24-.16.08-.56-.08.16.72-.72.72-.24,1.36-.24.16-.16,0-.56,0,0,1.04-1.12,1.04-.88,2.32-.64-.08-.64.8-1.04,1.28,0,.16-.16,0-.32,0-.48.96-.56,2-1.2,2.56-.16.16-.48.56-.8.96-.08.32-.56.8-.24,1.12.4-1.12,1.6-1.84,1.6-2.8.16-.08.24,0,.48.08.32-.72.56-1.12.8-1.6.08-.16-.08-.48,0-.72C213.52-31.12,214.72-31.12,214.24-32Zm.08-2.96c.24.24-.48.48-.08.64C214.24-34.48,214.72-34.88,214.32-34.96Zm2.8,1.84c-.4,0-.48.24-.56.56C216.88-32.56,217.04-32.8,217.12-33.12Zm-1.04,2a3.924,3.924,0,0,1-.8.4c.4,0-.4.64.08.72A4.405,4.405,0,0,0,216.08-31.12Zm-9.04,9.52c-.56,0-.4.72-.72.88C206.88-20.72,206.72-21.36,207.04-21.6ZM195.68-8.56c.56-.8,2.16-2.56,2.16-3.04C197.04-10.72,195.76-9.52,195.68-8.56Zm-1.76,1.84c-.48.56-.64,1.2-1.2,1.76C193.36-5.28,194.08-6.16,193.92-6.72ZM206.56-23.2c-1.28,2.32-2.8,4.48-4.32,6.8.48.32.4-.4.64-.56.24-.4,1.2-.56,1.2-1.12-.32,0-.4-.08-.32-.4.16-.32.16.08.72,0,.08-.64.24-1.6.88-1.92.08-.56.72-.88.8-.96.48-.64.56-1.04.4-1.2C207.12-22.72,207.04-23.2,206.56-23.2Zm-1.52,5.68c-.88,1.2-.96,1.52-2,2.8,0,.96-1.2,1.44-1.52,2.16a5.774,5.774,0,0,1,.72-1.6,6.9,6.9,0,0,0,1.6-2.16v-.56c.08-.08.4-.08.4-.08C204.96-17.76,204.08-17.52,205.04-17.52Zm5.28-11.76a9.482,9.482,0,0,0-.96,1.68,1,1,0,0,0,.8-.88C210.64-28.56,210.48-29.36,210.32-29.28ZM191.76-3.76a16.929,16.929,0,0,1-2.4,2c-.24.24-.24.64-.4.96-.08.24-.48.4-.8.72a23.225,23.225,0,0,0-2.32,2,15.326,15.326,0,0,1-4,3.2,3.063,3.063,0,0,1-.4-2.24l.48-3.28c.24-1.28,1.04-2.72.56-3.36a7.071,7.071,0,0,0,.56-2.56c.88-2.08.8-4,1.44-5.84,0-.24.24-.32.24-.56.16-.24-.24-.64,0-.8a14.981,14.981,0,0,0,.72-3.68c0-.16-.32-1.68.4-2,0,.08-.32.48,0,.64a3.379,3.379,0,0,0,.64-1.6c0-.16-.32-.16-.32-.24,0-.4.48-1.36.4-1.68,0,0-.4,0-.24-.32.32.4.32-1.36.64-2,.4-.4.16-3.28.96-3.6a1.931,1.931,0,0,1-.48-1.28c.8.32.64-1.44.72-2.08.08-.16-.8-.4.08-.72a2.82,2.82,0,0,1,.4-2.88c.08.48-.48.96,0,1.28a3.979,3.979,0,0,0,.08-2.88c.64-.8.72-2.64.96-3.76a3.03,3.03,0,0,1,0-1.2c0-.16.4-.24.4-.56a55.287,55.287,0,0,0,.96-7.84c.32.16.48-3.76.48-4.4,0-.24-.24-.24-.24-.56,0-.4.08-.8.08-1.2a13.536,13.536,0,0,0-.4-4.64c-1.04-4.16-2.8-7.2-5.92-9.04a14.61,14.61,0,0,0-6.8-1.92c-1.2,0-2.88-.08-3.92,0a12.992,12.992,0,0,0-2.96.88c-.32.08-.48-.08-.72,0a5.174,5.174,0,0,0-1.28.72c-1.68.48-2.8,1.36-4.64,2,.64-1.04,2-.88,2.64-1.84a8.944,8.944,0,0,0-3.28,1.6,15.943,15.943,0,0,0-4.64,3.44,4.288,4.288,0,0,0-.56,1.52c-.24,0-.4-.64-.4,0-.16.88.96.8,1.36,1.04.4.16,0,.32.48.4.24,0,.32-.4.72-.4,0,0,.64.56.72.16v.4c1.28.08,2.56-2.64,2.96-1.6a26.457,26.457,0,0,1,7.12-3.84c.4-.16,1.2-.72.8-.16,3.12-.96,4.88-1.44,6.8-1.44,1.68,0,3.92.4,5.04,2a9.7,9.7,0,0,1,1.04,5.04c0,1.12-.08,2.16-.08,3.2,0,.88.24,2.8-.4,2.88,0-.48.4-1.28,0-1.84,0,1.04-.56,2,.32,2.24,0,.32-.08.48-.32.56,0-.16,0-.56-.08-.56a14.756,14.756,0,0,0-.32,3.12,4.663,4.663,0,0,1,.48-2.32c-.56,5.36-1.6,11.28-2.08,16,.08-.24.4-.88.48-.64-.16.4-.16.96-.48,1.2-.08-.88-.88,3.84-.88,4.32,0,.4.4-.4.48.24a.5.5,0,0,1-.72.24c.16.24-.08.96.24.96-.08.16-.24,1.36-.4,2-.24.08-.64.16-.32.56.32,0,.72,0,.72.32-.24.08-.48.72-.88.32-.16,1.28-.8,2.56-.56,3.84.16-.48-.08-1.36.56-1.36,0,.08-.32,1.12-.16.8.32.08-.08-.64.4-.4a3.6,3.6,0,0,1-.48,1.68c0-.88.24-1.2-.56-.4-.4.4-.32,1.2-.4,2.08-.24,1.44-.72,2.4-.56,3.12.32,0,.72,1.28-.24.32,0,.72-.72,1.6-.56,2.08.72.08.56.4.8.64-.24.56,0,.96-.56.48-.32.32.4,1.6-.72,2.32,0-1.2.8-1.84.48-3.04-.24,1.44-1.04,3.28-1.04,4.88,0-.08.16-.16.4-.08-.64.8.08.8-.4,1.44-.4.08,0-.64-.32-.56-1.04,5.04-2.64,9.52-2.48,14.64-.32-.72-.24-1.68-.56-2.4-.48,1.2.56,2.08.24,3.52.72,0,.8.88,1.2,1.36a11.446,11.446,0,0,0,1.2.88c.4.32.48.96.8,1.2.08.16.4.16.48.24.24.08.4.48.64.72.56.16,1.2.16,1.84.4.56.16.96.48,1.44.56a6.96,6.96,0,0,0,4.88-1.2c.24-.08.64,0,.72-.08,1.12-.72,2.16-1.84,3.28-2.64l1.52-1.36c.16-.24.48-.32.8-.48.8-.8,1.52-1.84,2.32-2.72A8.013,8.013,0,0,1,196.96.4a47.65,47.65,0,0,0,4.08-5.12c.4-.56.88-.88,1.2-1.28.64-.72,1.04-2,1.84-2.8.16-.32.4-.16.64-.56a19.818,19.818,0,0,1,1.36-2.32c.16-.4.56-.64.8-1.04a5.37,5.37,0,0,1,.48-1.2c1.12-1.76,2.48-3.2,2.96-4.24.16-.24-.08-.64,0-.96.24-.4.8-.8,1.12-1.28.88-1.6,1.84-3.92,2.4-4.4.8-1.36,2.64-3.52,2.72-5.12.96-.4,1.12-1.68,1.52-2.08a7.465,7.465,0,0,0,.8-1.6,38.069,38.069,0,0,0,2.88-4.4c.08-.16.32-.56.4-.72s-.08-.4.08-.56c.24-.24.48-.32.64-.48a25.812,25.812,0,0,1,1.2-2.72c.08-.24.4-.32.48-.48s-.08-.4,0-.56a3.272,3.272,0,0,0,.96-1.6,2.853,2.853,0,0,0,.8-.88l.24-1.12c.16-.24.56-.4.72-.64.08-.24-.16-.4-.16-.56,0-.08.4-.24.56-.4.08-.16-.24-.24-.24-.48l.64-1.6c0-.08.4-.32.4-.32a12.988,12.988,0,0,0,.88-2.24c-.4.64-.8,1.36-1.28,2,.08-.96.88-1.92,1.2-2.8a4.163,4.163,0,0,0,.48-1.12,19.508,19.508,0,0,0-1.68,2.88,17.975,17.975,0,0,1-.96,1.68c-.24.56-.4,1.12-.64,1.6-.8,1.44-1.92,2.4-1.92,3.84-.4-.08-.4.16-.48.4.08,0,.4-.08.4.08-.32.4-.4.88-.96,1.28-.16.16-.48,0-.56.32s-.24.4.08.64a3.425,3.425,0,0,1-1.2,1.44l-.32.56c.24,0,.56,0,.4.24-.8.32-1.76,1.2-1.2,2a3.275,3.275,0,0,0-1.2,1.12c-.16.4.32.32.32.72-.08.4-.88.72-.88.56.4.4-.48.64-.64.96.56-.16-.08.24.24.48-.48.4-.88.48-1.2.88-.08.32.32,1.28-.4,1.04v.96c-.32-.16-.64.32-.72,0-.16-.56.8-.48.32-.8-.48.32-.64,1.12-.24,1.12-.48.72-.16,1.52-1.04,1.92.08,0,.16.08.24.08-.48,0-.4.48-.88.48,0-.32.24-.4,0-.48a11.936,11.936,0,0,1-1.6,2.32c-.16.56.4,1.6-.48,1.84-.24-.4.4-.64,0-.88-.32.48-.24,1.28-1.04,1.2,0,1.44-1.36,1.44-1.44,2,.08-.08.4-.08.4,0-.16.48-.4.08-.8.32-.16.72.4-.08.4.32,0,.16-.24.16-.16.4-.4-.32-.24-.16-.56,0,.32,1.36-1.68,1.68-1.44,2.88-.56-.32-.88.56-1.36,1.12,0-.72.48-.72.8-1.44-.32-.16-.4.72-.64.32l1.04-1.52c-.08-.72.72-1.12.88-1.36,0-.16-.16-.32-.16-.4.08-.24.56-.4.64-.56.4-.64-.08-.88.24-1.2-1.28.8-1.68,3.36-2.88,3.76,0,.48-1.2,2.4-1.44,2.16-.4-.48.8-.88.4-1.28-.4,0-.16.32-.4.72,0-.72-1.76,2.08-1.92,2.96-1.6,1.2-2.08,3.44-3.68,4.48.32-.96,1.12-1.28,1.44-2.24-.64-.32-.8.4-.96.88-.24-.4-.56.4-.96.8-.32.4-.64,1.12-1.04,1.68l-.64.64c-.56.48-.56,1.04-.8,1.6-.24.08-.64.16-.72.4-.88,1.04-.72,1.44-1.52,2.56.08-.32.32-.4.32-.72-.64,0-.4.64-.72.96-.4.4-.88.56-1.28,1.04-1.04.8-1.52,2-2.48,3.04a11.432,11.432,0,0,1-1.6,1.12c-.16.08-.16.48-.32.56,0,.08-.24-.08-.4,0-.48.4-1.12,1.52-1.68,1.28a30.289,30.289,0,0,0,3.84-4.16c.16-.08.4-.08.56-.24a.853.853,0,0,0,.48-.64c.48-.24,1.68-1.84,1.6-2.24Zm38.08-2.56c0-.24.64-.88.24-.88-.32,0-1.44,1.52-1.92,1.28l.08-.48a5.4,5.4,0,0,1-1.52.72,7.9,7.9,0,0,1,1.6-3.12c.16-.08-.16-.08-.4-.32,3.12-5.2,6.24-10.24,10.96-13.84a12.993,12.993,0,0,1,.56,3.76,16.892,16.892,0,0,1-.16,2.08,12.539,12.539,0,0,1-1.44,3.36c-2,3.04-2.96,3.28-6.48,6.56Zm30.48-2.8c-.64-.48.72-.96,1.12-.96C261.36-9.76,260.56-9.6,260.32-9.12ZM232.56-24c.08-.16.48-.88.16-.96-.24.4-.48.48-.48.64S232.32-24.08,232.56-24Zm29.2,13.68c.16-.4.4-.4.48-.4C262.24-10.56,262.24-10.32,261.76-10.32Zm5.52-4.64c-.16.16.08.24,0,.24-.16,0-.4.24-.32.4.16,0,2.4-1.04,2.8-2.56a.883.883,0,0,0,0-.64C269.36-16.16,267.52-15.92,267.28-14.96Zm-.32.64c-.4-.08-.88.32-1.12.4-.48.24-.72.24-.72.64a1.875,1.875,0,0,0,.8-.4c.16.08.24.16.4.08C266.48-13.92,266.72-13.76,266.96-14.32Zm-2.8,2.24c.08-.48.56-.08.72-.48a1.362,1.362,0,0,1,.08-.56C264.08-12.96,263.68-12.4,264.16-12.08Zm-1.12.08c-.16,0-.4.24-.56.32-5.36,3.28-9.2,5.36-13.04,6-1.12,0-.96-1.12-.96-1.52.08-2.72,1.36-6.88,1.36-10,0-2.08-.56-3.76-2.72-4.56.16-.24,1.12.24,1.12.08,0-.48-1.52-1.44-1.92-1.44-.48,0-.08-.16-.88-.16-.32,0-.08.8-.72.8-.16-1.68-4.64-4.32-8-4.32a4.582,4.582,0,0,0-3.76,1.6c.4,0,.56-.16.88-.16,0,0,.48.48.32.64-.4.24-.64-.16-1.04.72a6.965,6.965,0,0,0-.88.72,1.258,1.258,0,0,0-.88.8c-5.28,4.8-9.68,10.32-11.92,17.92a2.306,2.306,0,0,0-.56,1.6c0,2.4,3.28,5.2,6.56,5.2,5.2,0,14.64-13.36,19.04-14.72A10.785,10.785,0,0,0,243.52-8c0,4.64,3.2,7.6,6.8,7.6,4.72,0,12.16-5.68,17.6-10.08a27.381,27.381,0,0,0,3.76-3.92c.96-1.2,1.68-2.48.4-2.8-1.76.08-6.8,5.68-9.76,6.32l.32-.48C262.88-11.28,262.96-11.68,263.04-12ZM298.4-59.52c.56-.24.64-.8.64-1.44v-.56c.8-.08.16-.96.88-1.04,0-.56,0-.64.08-.64,0-.16-.08-.4-.08-.48,0-.8.4-1.12,1.44-1.12,0,.32.08.48.08.72,0,.4-.08.72-.08,1.12v.24l-.4.16c-3.12,10.48-8.8,19.28-16.32,29.68,3.52-12.32,6.4-21.92,14.8-30.64,0,.8-.4,1.04-.4,1.76v.24A2.994,2.994,0,0,0,298.4-59.52ZM272.32-3.28c.48,1.6.08,3.92.88,4.88C272.8.08,273.12-2.48,272.32-3.28Zm14.64-47.84c.08-.8,0-1.6.64-1.6v.4A1.592,1.592,0,0,1,286.96-51.12ZM275.04,3.2c-.4-.08-.64-.88-.64-1.6C275.04,1.92,275.04,2.72,275.04,3.2ZM273.2,1.6c.16.08.16.4.16.72s0,.72.16.8h.24Zm12.32-52.48.4-.08-.08-.8C285.44-51.68,285.6-51.2,285.52-50.88ZM274,4c0-.4.24-.56.64-.72A.7.7,0,0,1,274,4Zm14.72-58.96c0,.24.08.8-.32.8C288.56-54.4,288.32-54.96,288.72-54.96Zm9.12-3.2a.283.283,0,0,0,.32-.32v-.32C297.76-58.72,297.92-58.48,297.84-58.16Zm-9.2,1.76c0,.32,0,.4-.24.4h-.16A.373.373,0,0,1,288.64-56.4Zm8.16.64c.32-.16.16-.64.24-.8C296.72-56.48,296.8-55.92,296.8-55.76Zm.8-1.84c.32-.08.24-.4.24-.56C297.6-58.08,297.6-57.76,297.6-57.6Zm-11.68,5.84c.24-.24.24-.4-.08-.32A.828.828,0,0,0,285.92-51.76Zm1.44-3.12c.24,0,.24-.32.24-.48a1.016,1.016,0,0,0,.32-.56c-.16,0-.16.16-.32.24C287.36-55.68,287.44-55.12,287.36-54.88Zm-.16.56c.16,0,.24-.08.24-.16a3.464,3.464,0,0,1-.08-.4C287.2-54.88,287.2-54.8,287.2-54.32Zm-.24.32c.16,0,.16-.08.24-.32C286.96-54.32,286.96-54.16,286.96-54Zm7.84-13.68c.4.08.4.32.64.4l.08.4c-.16,0-.16.08-.16.32.08,0,.64-.64.64-.24s-.8,1.28-1.28,1.28c.64-.96-.32-.48-.32,0,.32.32.32.32.16.32-1.12,1.68-3.04,3.2-3.92,5.2-1.52.48-.48,2.08-1.6,2.72.08-.32-1.12.72-1.12,1.36l.32-.08a11.545,11.545,0,0,1-.4,1.92l.56-.08v.08c-.08.16-.96,1.36-.96,1.12,0-.32.16-.4.48-.64l-.08-.48c-1.68.08-1.6,3.12-1.92,3.12,0,.16-.32.96-.08.96a3.488,3.488,0,0,1,.96-.16,10.449,10.449,0,0,0-1.44,2.08l.08-.72a2.4,2.4,0,0,0-.64,1.52c-2.4,3.76-6,15.12-7.68,20.16a28.984,28.984,0,0,1-2.4,4.64,31.178,31.178,0,0,1-4.48,6c-1.04,1.2-3.2,3.36-3.52,3.76-.08.16.32.24.48.32a1.3,1.3,0,0,0,1.44.48c.72,0,.4-.16,1.6-.64.4-.16.4-.32.8-.64a6.185,6.185,0,0,0,1.6-1.2,4.764,4.764,0,0,0,1.6-1.76c-.08.48-.48,2.08-1.04,5.2a7.28,7.28,0,0,1-.4,2.08,12.585,12.585,0,0,0-.24,2.96c0,.4-.16,1.76.24,1.76,0-.56-.08-1.12-.08-1.6,0-.24,0-.4.24-.4.08.56,0,.88.56.96,0-.88-.4-1.2-.4-1.52,0-.16-.16-.24.32-.48A4.648,4.648,0,0,1,274-4.96c-.08,0-.24-.4-.48-1.36,0,1.84.64,2.72.64,4.64-.24-.32-.32-.4-.4-.4q-.24,0-.24.48c0,.32.08.72.64.72a1.442,1.442,0,0,1,.08.8,1,1,0,0,0-.4.96c0,.4.08.96.08,1.44,0,.4,0,.8-.4.88.32,3.52,6.24,9.6,11.12,9.6,2.08,0,4-1.28,4.56-4.48-.8.32-3.36,2-4.88,2-4.8,0-6-10.48-6-12.08,0-5.6,1.84-14.8,3.12-19.2.48-1.6,4-5.92,5.12-7.92,7.44-10.8,15.28-20.64,18.4-35.84v-.56c0-3.52-5.76-3.92-7.12-4.8-.4,1.12-2.64.96-2.64,2.16C295.2-67.76,294.8-68.08,294.8-67.68Zm.56,1.12c-.32,0-.4.16-.4.24C294.96-65.76,295.36-66.32,295.36-66.56ZM293.2-6.48v-.08a35.759,35.759,0,0,0-.56,4.4,37.082,37.082,0,0,0,2.72,3.76,5.577,5.577,0,0,0,3.76,1.44c6.4,0,10.08-8.32,12.48-8.32,1.76,0,2.56,4.72,6.96,4.72,5.6,0,11.44-6,14.8-9.44a10.59,10.59,0,0,0,1.6-2.56c.64-1.44,2-3.04,2-4.24a1.476,1.476,0,0,0-.4-.96c-2.8,2.16-6.24,5.6-9.76,8.24-2.4,1.84-5.68,4.4-8.08,4-.4-.4-.4-.4-.4-.8,0-.24.24-.96.32-1.36.56-2.88,3.12-6.72,3.12-8.8,0-2.4-2.8-3.12-5.92-3.52,0,.08-.4.64-.4.72,0,1.2-.8.48-.8,2.08,0,.24-.64.88-.64,1.12a11.034,11.034,0,0,1-3.2,4.16c-.16.24.32-.48.8-1.28.32-.48.16-.48,0-.4-.4.32-2.96,2.72-3.36,3.12-2.64,2.32-5.12,5.28-8.08,6.16a1.108,1.108,0,0,1-.8-1.2c0-4,5.76-14,5.76-17.44,0-1.92-1.28-3.12-5.6-3.2-.48,4.8-4,9.84-4.72,13.2a2.627,2.627,0,0,0,.32,2.16c-.16,0-.88-.08-.96.24a1.032,1.032,0,0,1,.96.96c0,.08-.4,1.2-.56,1.2,0,.88,0,1.44-.24,1.44-.08,0-.32-.32-.48-.72,0,.72.32,1.2.32,1.68,0,.24-.16.48-.32.48v-.96c-.8,0,.32,1.52-.48,1.52C293.12-4.96,293.2-6.08,293.2-6.48ZM294.8-10c-.24.08-.4.64,0,.72Zm-1.28,2.32c-.4.08-.32.8-.32,1.2.56,0,.32-.8.32-1.2h.32C293.76-7.92,293.76-7.92,293.52-7.68Zm51.2-10.08v.48c-.24.32-.56.48-.64.72.56,0,1.6-.24,1.84-.64-.16.88-2.16,1.44-2.16,2.32a.664.664,0,0,0-.64.16.864.864,0,0,0,.24-.56c-.32.16-.48.16-.48.72l-.56.4c.16-.32-.4,0-.4.16a1.761,1.761,0,0,1-.64.08c-.16.32-.56.32-.8.8-.16-.56,1.84-1.2,1.44-1.6a5.562,5.562,0,0,1-1.84.8l-.64-.24c.4-2.72,5.84-9.04,9.52-7.84a24.1,24.1,0,0,0-1.28,2.48,1.637,1.637,0,0,0,.64-.64c.16.08-.08.4-.16.64a1.381,1.381,0,0,1,.32-.24,1,1,0,0,1-.56.8,20.459,20.459,0,0,1-2.96,1.6A.37.37,0,0,0,344.72-17.76Zm2.72-1.92c-.72.56-1.76,1.2-2.48,1.76C345.44-17.76,347.04-18.88,347.44-19.68Zm2.24,15.36c.08-.4,1.04-.48,1.36-.64,0-.4.4-.4.72-.24C351.52-4.72,350.16-4.4,349.68-4.32ZM366.96-14c-.08.48-.88.4-.88,1.12C366.48-13.12,367.28-13.6,366.96-14Zm-17.84-6.96c.24.24-.08.8-.48.8C348.56-20.72,349.04-20.56,349.12-20.96Zm21.6,4.8c-.24,0-.4.16-.56.48C370.64-15.6,370.64-16,370.72-16.16Zm-23.2,12.8a.659.659,0,0,1,.64-.4C348.24-3.36,347.84-3.52,347.52-3.36Zm16-8.24v.4C363.92-10.96,363.92-11.76,363.52-11.6ZM348.88-4c.08-.16.4-.16.56-.16C349.36-3.68,349.12-4,348.88-4Zm-5.04-11.52c-.32-.08-.4.16-.48.24l.4.08C343.76-15.28,343.84-15.36,343.84-15.52Zm-1.52.8c0-.24.16-.24.24-.48C342.32-15.28,341.84-14.88,342.32-14.72Zm26.4-.08c-.16-.08-.48.08-.56.32l-.4.32A1.239,1.239,0,0,0,368.72-14.8Zm-18.4-10.56c-.56.4-.56-.32-1.28-.32-.16-.48-3.6.16-4.72.8a17.832,17.832,0,0,0-7.68,6.4c.08.08.24-.08.4.08-.32.08-.96.08-1.28.48.08.24-.32.64-.4.64.08.72-.8.16-.64,1.28a4,4,0,0,1-1.68,2l-.8,1.44c-.72,1.44,0,3.04-.32,4.48-.4,2.48,2,5.68,4,6.48a17.648,17.648,0,0,0,7.44,1.44,38.7,38.7,0,0,0,13.2-2.64c4.08-1.68,4.48-2.16,8.4-4.32a45.556,45.556,0,0,0,5.76-4.4l1.2-1.04a12.333,12.333,0,0,0,2.24-3.04c.32-.72.8-1.76-.32-2.32a21,21,0,0,1-2.32,2,24.944,24.944,0,0,1-6.24,4.32c-.24,0-1.92,1.2-2.16,1.2a.9.9,0,0,1-.64-.08,2.244,2.244,0,0,0,.8-1.12c-2.24,1.12-4,2.24-6.8,3.6-.64.48-3.92,1.92-4.8,1.52.08.32.08.48-.16.48,0,0-2.24.88-2.8,1.2,0,.64-1.76.72-2.8,1.04a16.863,16.863,0,0,1-3.92.48c-3.2,0-6.56-1.04-5.44-4.72.08-.16,4.32-2.96,6.08-4.16.4-.32,5.28-3.2,5.28-3.12,1.44-1.44,3.84-2.32,4.72-4.08.4-.8,1.04-1.92.64-2.8C352.64-23.52,351.84-24.88,350.32-25.36Zm6.32,18c.72-.72,2.24-1.12,3.52-1.92A7.254,7.254,0,0,1,356.64-7.36Zm-4.72,2c.16-.32,1.2-1.2,1.12-.8a5.426,5.426,0,0,1,3.52-1.12A19.593,19.593,0,0,1,351.92-5.36Zm18.8,2.56c-.24-.32.48-.4.32-.56C371.44-3.28,370.8-2.96,370.72-2.8Zm3.2-21.76c-.64.4-1.04.4-1.28.64A1.236,1.236,0,0,0,373.92-24.56Zm-1.04,1.28c.72.16.96-.48,1.36-.72C373.84-23.76,373.2-23.76,372.88-23.28Zm4.32-3.04a10.659,10.659,0,0,0,1.92-.8C378.48-26.88,377.6-26.88,377.2-26.32Zm-3.12,1.92c.24,0,.4-.16.64-.32C374.24-24.88,374.08-24.72,374.08-24.4Zm40.48,13.2a6.3,6.3,0,0,0-1.6-.32c-.88-.08-1.92-.16-2.96-.16.48-.56,2.48.08,2.64-.56-.4-.16-1.36.24-1.44-.24.24,0,.8.24.88-.4-.64.24-1.44.24-1.84.4-1.68-.56-2.48.16-2.96.08a2.682,2.682,0,0,0-.8,0c-.64,0-.24.4-.8,0-.56.32-2.96,0-4.08.64.32.08-.08.08-.4.16-.32-.32,0,0,.24-.4-2.96.4-4.72.24-6.64,1.44-.4-.4-3.44-.08-3.28.56a2,2,0,0,0-2,.24l-1.28.24a2.8,2.8,0,0,1-.96.24,78.623,78.623,0,0,0-8.08-4.4l-1.76-1.2c-.8-.72-2.32-1.52-2.8-2.4a.962.962,0,0,1-.16-.64h-.08c.08-.4.48-.4.8-.88.24-.16,0-.4,0-.56a1.524,1.524,0,0,0,.8-.4c2.08-1.44,5.28-2.32,7.6-3.12-.32-.24-.72.32-.88,0,1.36-.24,2.48-.88,4.32-.64.16.32-.24.4.16.4.24-.4,1.2.4,1.92.56.48-.32-.32-.32-.08-.96.08,0,.56.24.56,0-.32-.08-.32-.4-.48-.48.16,0,.16.08.4,0,0-.56-.8-1.12-1.04-1.28-.08-.08,0-.32,0-.48-.56-.32-1.28-.56-2-1.04-.56-.32-1.04-.88-1.68-.72.24.24.32.32.24.32-1.44-.48-3.04-.08-4.32-.48,0,.48-.24.4-.48.48.4.08,1.04-.32,1.04,0-.88.32-2.16.88-3.28,1.28-1.2.16-1.2.16-1.68.64-.48.08-1.12.08-1.28.56.4,0,.48-.48.96-.48a.676.676,0,0,1-.16.48,8.049,8.049,0,0,1,1.76-.64c-.08,0-.16,0-.16-.24.56-.32.56,0,1.2,0,.08-.16-.16-.16-.16-.16.32-.4.4-.32.64,0,0,0,.16.4.32.24a.74.74,0,0,1-.96.16c0,.16-.4.24-.48.48a26.462,26.462,0,0,1-3.76,1.76,16.909,16.909,0,0,1-3.04,1.36c.72-.64.64-.96,1.04-1.36-.4,0-.8.72-1.04.56,0-.72.88-.64,1.04-1.2-.72.48-1.36.48-1.84,1.2a.552.552,0,0,1,.24.4c-.24.08-.4.4-.56.48,0,.4,0,.48-.24.48-.24-.56.4-.88.24-1.2-.08.32-.56.72-.56,1.12a1.693,1.693,0,0,0,.32,1.12c-.32,0-.24.24,0,.64a9.3,9.3,0,0,0,1.2,3.04,1.156,1.156,0,0,0,.16.56c.8,1.44,2.24,2.4,3.2,3.44a26.364,26.364,0,0,0,3.44,2.4l.88.8,1.68.88a27.394,27.394,0,0,0-3.52,1.44,5.87,5.87,0,0,0-1.04.8c-.32.24-.8.24-1.04.48.08-.48.72-.32.88-.8a10.656,10.656,0,0,0-2.64,1.92c-.32,0-.24-.24-.32-.24-.64.48-1.92,1.12-2.32,1.52-.48.4-.48.16-.8.08-.72,1.2-.08.72.24,1.6,0,.24-.24.4-.16.48,0,.32.64.64.24.96.56.24.8.24.8,1.04A7.572,7.572,0,0,0,376.32,2c2.32-.16,4.96-.8,6.48-2.32l.8-.24a12.3,12.3,0,0,0,1.04-.96s.24.24.24.16a1.48,1.48,0,0,0,.64-.96l.8-.24c.88-.64.4-1.2.72-1.36.24-.08.4-.16.4-.24a.284.284,0,0,0-.16-.24h.56a13.275,13.275,0,0,1,.48-1.28l.88-.88a64.764,64.764,0,0,1,9.6-2.4c.32,0,.88-.16,1.28-.16,2.64-.24,5.52-.88,8.16-1.04a4.226,4.226,0,0,1,1.04-.08,8.3,8.3,0,0,0,2.56-.32c.32,0,.16-.24.56-.24.64-.16,1.36.24,2.24,0C414.56-11.2,413.68-10.72,414.56-11.2Zm0-.88a1.026,1.026,0,0,0-1.6.24C413.44-12,414.24-11.68,414.56-12.08Zm.88-.88c.72.32,1.6-.24,2.56,0-.16-.32-.8-.08-1.2-.24C416.56-13.28,415.6-13.44,415.44-12.96Zm-1.28-.24a2.035,2.035,0,0,0,1.2.24C415.6-13.44,414.24-13.28,414.16-13.2ZM393.2-10.96c0-.56-.8,0-1.36.08C392.4-10.8,392.72-11.12,393.2-10.96Zm10.08-1.6c-.4,0-1.6-.24-.96.16C402.64-12.8,403.12-12,403.28-12.56Zm.24,0c.4-.16.88.16,1.12-.24C404.08-12.72,403.6-12.88,403.52-12.56Zm-14.88,2.4c-.32,0-.72,0-.72.24C388.24-10,388.48-9.92,388.64-10.16ZM406.4-12.8c.08,0,.8.24.8-.08C406.88-12.8,406.32-13.12,406.4-12.8Zm-10.56,1.2c-.16.08,2.72-.16,2.24-.56A14.845,14.845,0,0,0,395.84-11.6Z" transform="translate(4.64 76.824)" fill="#111"/>
</svg>
